<svg id="Iconly_Light-outline_Arrow_-_Right_2" data-name="Iconly/Light-outline/Arrow - Right 2" xmlns="http://www.w3.org/2000/svg" width="20" height="20" viewBox="0 0 20 20">
  <g id="Arrow_-_Right_2" data-name="Arrow - Right 2" transform="translate(6.25 3.333)">
    <path id="Arrow_-_Right_2-2" data-name="Arrow - Right 2" d="M.2,13.132a.679.679,0,0,1-.061-.9l.063-.07L6.31,6.181a.7.7,0,0,1,.986,0,.677.677,0,0,1,.061.9l-.063.07L1.189,13.132a.705.705,0,0,1-.986,0ZM4.331,5.2,4.26,5.143.205,1.172A.678.678,0,0,1,.2.2.706.706,0,0,1,1.118.139L1.189.2,5.244,4.171a.677.677,0,0,1,0,.97.707.707,0,0,1-.915.064Z" transform="translate(0 0)" fill="#fff"/>
  </g>
</svg>
