<svg xmlns="http://www.w3.org/2000/svg" width="13.333" height="7.5" viewBox="0 0 13.333 7.5">
  <g id="Arrow_-_Right_2" data-name="Arrow - Right 2" transform="translate(13.333) rotate(90)">
    <path id="Arrow_-_Right_2-2" data-name="Arrow - Right 2" d="M.2,13.132a.679.679,0,0,1-.061-.9l.063-.07L6.31,6.181a.7.7,0,0,1,.986,0,.677.677,0,0,1,.061.9l-.063.07-6.105,5.98a.705.705,0,0,1-.986,0ZM4.331,5.2,4.26,5.143.205,1.172A.678.678,0,0,1,.2.2.706.706,0,0,1,1.118.139L1.189.2,5.244,4.171a.677.677,0,0,1,0,.97.707.707,0,0,1-.915.064Z" transform="translate(0 0)" fill="#c4c4c4"/>
  </g>
</svg>
