<svg id="Iconly_Broken_Profile" data-name="Iconly/Broken/Profile" xmlns="http://www.w3.org/2000/svg" width="8" height="10" viewBox="0 0 8 10">
  <g id="Profile" transform="translate(0)">
    <path id="Profile-2" data-name="Profile" d="M3.489,9.993a.359.359,0,0,1-.35-.369.368.368,0,0,1,.371-.349q.242.007.49.007c2.174,0,3.277-.376,3.277-1.116S6.174,7.038,4,7.038.723,7.414.723,8.155c0,.243.086.594.837.847a.359.359,0,1,1-.232.68C.23,9.312,0,8.648,0,8.155,0,6.51,2.283,6.32,4,6.32c.989,0,4,0,4,1.845C8,9.81,5.717,10,4,10Q3.74,10,3.489,9.993ZM1.306,2.677A2.693,2.693,0,1,1,4,5.353,2.688,2.688,0,0,1,1.306,2.677Zm.723,0A1.971,1.971,0,1,0,4,.719,1.966,1.966,0,0,0,2.029,2.677Z" transform="translate(0)" fill="#f36621"/>
  </g>
</svg>
