<svg id="Iconly_Broken_Graph" data-name="Iconly/Broken/Graph" xmlns="http://www.w3.org/2000/svg" width="15" height="15" viewBox="0 0 15 15">
  <g id="Graph" transform="translate(1.25 1.563)">
    <path id="Graph-2" data-name="Graph" d="M2.819,11.3A5.155,5.155,0,0,1,.04,7.3,3.2,3.2,0,0,1,0,6.7,5.179,5.179,0,0,1,4.143,1.633a.5.5,0,1,1,.2.98A4.192,4.192,0,0,0,1,6.717a2.6,2.6,0,0,0,.028.462,4.207,4.207,0,0,0,8.218.626.5.5,0,0,1,.614-.343.5.5,0,0,1,.309.226.487.487,0,0,1,.052.378,5.229,5.229,0,0,1-5.029,3.809A5.215,5.215,0,0,1,2.819,11.3ZM7.452,5.987a1.006,1.006,0,0,1-1-.914L6.181.985a.92.92,0,0,1,.258-.7A.976.976,0,0,1,7.13,0h.021a5.575,5.575,0,0,1,5.342,4.648H12.5v.087a.919.919,0,0,1-.23.67.93.93,0,0,1-.641.309l-4.109.272Zm0-.98,4.054-.267a4.564,4.564,0,0,0-1.5-2.631A4.619,4.619,0,0,0,7.178.991Z" fill="#f36621"/>
  </g>
</svg>
