<svg id="Iconly_Broken_Call" data-name="Iconly/Broken/Call" xmlns="http://www.w3.org/2000/svg" width="24" height="24" viewBox="0 0 24 24">
  <g id="Call" transform="translate(2 2)">
    <path id="Call-2" data-name="Call" d="M13.1,19.41c-3.265-1.355-8.2-5.75-10.982-9.783a.749.749,0,1,1,1.235-.85c2.6,3.767,7.336,8.008,10.352,9.261,1.219.567,2.128.6,2.8.117.527-.319,2.024-1.805,2-2.579a.982.982,0,0,0-.29-.443,18.073,18.073,0,0,0-2.913-2.2c-.319-.068-.651.126-1.156.445l-.257.159a.75.75,0,1,1-.774-1.284l.231-.143a3.062,3.062,0,0,1,2.3-.633,15.579,15.579,0,0,1,3.636,2.611,2.3,2.3,0,0,1,.716,1.4c.065,1.842-2.4,3.767-2.686,3.929A3.138,3.138,0,0,1,15.435,20,5.59,5.59,0,0,1,13.1,19.41ZM9.982,12.353A10.4,10.4,0,0,1,6.391,7.727a2.428,2.428,0,0,1,.365-2.192c.226-.392.351-.625.3-.876A18.964,18.964,0,0,0,4.863,1.793.909.909,0,0,0,4.382,1.5C3.667,1.482,2.2,2.9,1.87,3.448c-.515.707-.479,1.615.074,2.829A.75.75,0,0,1,.58,6.9C-.208,5.171-.193,3.73.624,2.617.927,2.109,2.839-.1,4.479,0A2.305,2.305,0,0,1,5.91.718,15.6,15.6,0,0,1,8.524,4.352a2.645,2.645,0,0,1-.467,1.929c-.265.461-.357.658-.266.907a8.884,8.884,0,0,0,3.065,3.945.75.75,0,0,1-.873,1.22Z" fill="#cbcbcb"/>
  </g>
</svg>
