<svg id="Iconly_Broken_Discount" data-name="Iconly/Broken/Discount" xmlns="http://www.w3.org/2000/svg" width="47" height="47" viewBox="0 0 47 47">
  <g id="Discount" transform="translate(3.917 3.917)">
    <path id="Discount-2" data-name="Discount" d="M15.423,37.455l-1.429-1.431a2.961,2.961,0,0,0-2.085-.86H9.9a5.9,5.9,0,0,1-5.9-5.9,1.469,1.469,0,1,1,2.938,0A2.96,2.96,0,0,0,9.9,32.225h2.013a5.873,5.873,0,0,1,4.156,1.717l1.412,1.414a2.949,2.949,0,0,0,2.1.876,2.788,2.788,0,0,0,2.1-.872,1.47,1.47,0,1,1,2.083,2.074,5.91,5.91,0,0,1-8.34.021ZM27.8,33.7a1.468,1.468,0,0,1,1.468-1.468,2.963,2.963,0,0,0,2.959-2.961V27.253A5.855,5.855,0,0,1,33.942,23.1l1.41-1.412a2.962,2.962,0,0,0,0-4.2l-1.412-1.414a5.87,5.87,0,0,1-1.72-4.158V9.895a2.96,2.96,0,0,0-2.959-2.959,1.47,1.47,0,0,1,0-2.94,5.9,5.9,0,0,1,5.9,5.9v2.015a2.948,2.948,0,0,0,.862,2.085l1.4,1.406a5.9,5.9,0,0,1,.023,8.34L36.021,25.17a2.992,2.992,0,0,0-.86,2.085v2.011a5.905,5.905,0,0,1-5.9,5.9A1.469,1.469,0,0,1,27.8,33.7Zm-4.88-9.075a1.7,1.7,0,1,1,1.7,1.7A1.7,1.7,0,0,1,22.915,24.62Zm-9.4,1.035a1.473,1.473,0,0,1,0-2.08L23.576,13.506a1.469,1.469,0,1,1,2.076,2.08L15.589,25.655a1.474,1.474,0,0,1-2.078,0ZM1.735,23.765a5.91,5.91,0,0,1-.019-8.347l1.429-1.429a2.938,2.938,0,0,0,.862-2.076V9.895A5.9,5.9,0,0,1,9.9,4h2.018a2.919,2.919,0,0,0,2.074-.862L15.4,1.727a5.893,5.893,0,0,1,8.108-.217,2.1,2.1,0,0,1,.236.2,1.494,1.494,0,0,1,.411,1.019A1.468,1.468,0,0,1,21.69,3.8l-.039-.037A3,3,0,0,0,17.48,3.8L16.07,5.213a5.824,5.824,0,0,1-4.151,1.724H9.9A2.968,2.968,0,0,0,6.944,9.895v2.018a5.817,5.817,0,0,1-1.722,4.152l-1.41,1.414a2.987,2.987,0,0,0,0,4.209,1.481,1.481,0,0,1,0,2.078,1.508,1.508,0,0,1-1.038.43A1.455,1.455,0,0,1,1.735,23.765Zm11.1-9.188a1.7,1.7,0,1,1,1.7,1.7A1.7,1.7,0,0,1,12.832,14.578Z" transform="translate(0 0)" fill="#12416d"/>
  </g>
</svg>
