<svg id="Bookmark" xmlns="http://www.w3.org/2000/svg" width="16" height="20" viewBox="0 0 16 20">
  <path id="Bookmark-2" data-name="Bookmark" d="M11.526,0h-6.9C1.784,0,0,1.986,0,5.172V18.323A1.658,1.658,0,0,0,1.638,20a1.625,1.625,0,0,0,.784-.2l5.612-3.116,6.534,3.133a.709.709,0,0,0,.555,0,.733.733,0,0,0,.394-.4.759.759,0,0,0-.319-.883L8.707,15.428a1.385,1.385,0,0,0-1.362,0L1.724,18.535a.211.211,0,0,1-.207,0,.213.213,0,0,1-.095-.185V5.172c.009-2.357,1.164-3.7,3.233-3.7h6.9c2.655,0,3.043,2.207,3.043,3.53v.6H7.129a.708.708,0,0,0-.5.233.743.743,0,0,0-.191.526.715.715,0,0,0,.69.706h7.44v7.723A.716.716,0,1,0,16,14.8h0V5C16,1.915,14.293,0,11.526,0Z" fill="#cbcbcb"/>
</svg>
