<svg xmlns="http://www.w3.org/2000/svg" width="24" height="24" viewBox="0 0 24 24">
  <g id="Group_10112" data-name="Group 10112" transform="translate(25 -184.904)">
    <g id="Iconly_Broken_Filter_2" data-name="Iconly/Broken/Filter 2" transform="translate(-25 184.904)">
      <g id="Filter_2" data-name="Filter 2" transform="translate(3 3)">
        <path id="Filter_2-2" data-name="Filter 2" d="M6.2,17.587a.727.727,0,0,1,.338-.952l3.486-1.67V10.542a.726.726,0,0,1,.209-.51l6.22-6.294a.547.547,0,0,0,.158-.385V1.974a.535.535,0,0,0-.527-.541H8.074A.707.707,0,0,1,7.379.715.707.707,0,0,1,8.074,0h8.009A1.949,1.949,0,0,1,18,1.974V3.353a2.012,2.012,0,0,1-.575,1.408l-6.011,6.08v4.58a.716.716,0,0,1-.4.648L7.124,17.933A.68.68,0,0,1,6.831,18,.7.7,0,0,1,6.2,17.587Zm-.143-3.346v-3.3L.517,4.784A2.034,2.034,0,0,1,0,3.419V2A1.959,1.959,0,0,1,1.916,0H4.7a.711.711,0,0,1,.695.725.71.71,0,0,1-.695.724H1.916A.538.538,0,0,0,1.39,2V3.419a.564.564,0,0,0,.142.374l5.727,6.368a.737.737,0,0,1,.188.494v3.586a.7.7,0,1,1-1.39,0Z" transform="translate(0 0)" fill="#cbcbcb"/>
      </g>
    </g>
  </g>
</svg>
