<svg id="Iconly_Bold_Bookmark" data-name="Iconly/Bold/Bookmark" xmlns="http://www.w3.org/2000/svg" width="28.683" height="28.683" viewBox="0 0 28.683 28.683">
  <g id="Bookmark" transform="translate(4.78 2.39)">
    <path id="Bookmark-2" data-name="Bookmark" d="M17.91,23.9a1.226,1.226,0,0,1-.616-.168L9.549,19.863,1.793,23.735a1.278,1.278,0,0,1-.586.155A1.214,1.214,0,0,1,0,22.672V4.529A3.963,3.963,0,0,1,1.718,1.046,7.355,7.355,0,0,1,5.856,0H13.23a7.387,7.387,0,0,1,4.147,1.046,4.018,4.018,0,0,1,1.745,3.484V22.672a1.221,1.221,0,0,1-.884,1.183A1.115,1.115,0,0,1,17.91,23.9ZM5.044,7.218a.944.944,0,0,0,0,1.889h9a.944.944,0,0,0,0-1.889Z" transform="translate(0 0)" fill="#ee3a3a"/>
  </g>
</svg>
