<svg id="Iconly_Broken_Info_Circle" data-name="Iconly/Broken/Info Circle" xmlns="http://www.w3.org/2000/svg" width="24" height="24" viewBox="0 0 24 24">
  <g id="Info_Circle" data-name="Info Circle" transform="translate(2 2)">
    <path id="Info_Circle-2" data-name="Info Circle" d="M2.073,16.1a.727.727,0,0,1,1.152-.888A8.547,8.547,0,1,0,1.454,10a8.636,8.636,0,0,0,.1,1.3.727.727,0,0,1-.608.828.719.719,0,0,1-.828-.608A10,10,0,1,1,2.073,16.1Zm7.183-2.3A.746.746,0,0,1,10,13.046h.01a.75.75,0,1,1-.754.751ZM9.25,10.625V6.2a.75.75,0,1,1,1.5,0v4.421a.75.75,0,0,1-1.5,0Z" fill="#cbcbcb"/>
  </g>
</svg>
