<svg xmlns="http://www.w3.org/2000/svg" xmlns:xlink="http://www.w3.org/1999/xlink" width="25" height="25" viewBox="0 0 25 25">
  <defs>
    <linearGradient id="linear-gradient" x1="0.928" y1="0.061" x2="0.105" y2="1" gradientUnits="objectBoundingBox">
      <stop offset="0" stop-color="#f65e4b"/>
      <stop offset="0.494" stop-color="#dc3875"/>
      <stop offset="1" stop-color="#c2139a"/>
    </linearGradient>
  </defs>
  <g id="Group_9976" data-name="Group 9976" transform="translate(-136 -565)">
    <rect id="Rectangle_20" data-name="Rectangle 20" width="25" height="25" rx="3" transform="translate(136 565)" fill="url(#linear-gradient)"/>
    <path id="Icon_awesome-instagram" data-name="Icon awesome-instagram" d="M5,4.674A2.564,2.564,0,1,0,7.559,7.238,2.56,2.56,0,0,0,5,4.674ZM5,8.9A1.667,1.667,0,1,1,6.662,7.238,1.67,1.67,0,0,1,5,8.9ZM8.262,4.569a.6.6,0,1,1-.6-.6A.6.6,0,0,1,8.262,4.569Zm1.7.607a2.96,2.96,0,0,0-.808-2.1,2.978,2.978,0,0,0-2.095-.808c-.825-.047-3.3-.047-4.125,0a2.974,2.974,0,0,0-2.095.806,2.969,2.969,0,0,0-.808,2.1C-.017,6-.017,8.474.03,9.3a2.96,2.96,0,0,0,.808,2.1,2.982,2.982,0,0,0,2.095.808c.825.047,3.3.047,4.125,0a2.958,2.958,0,0,0,2.095-.808A2.979,2.979,0,0,0,9.96,9.3c.047-.826.047-3.3,0-4.124ZM8.893,10.185a1.687,1.687,0,0,1-.95.951,11.016,11.016,0,0,1-2.947.2,11.1,11.1,0,0,1-2.947-.2,1.687,1.687,0,0,1-.95-.951A11.023,11.023,0,0,1,.9,7.238,11.109,11.109,0,0,1,1.1,4.29a1.687,1.687,0,0,1,.95-.951A11.016,11.016,0,0,1,5,3.139a11.1,11.1,0,0,1,2.947.2,1.687,1.687,0,0,1,.95.951,11.023,11.023,0,0,1,.2,2.948A11.017,11.017,0,0,1,8.893,10.185Z" transform="translate(143.228 570.096)" fill="#fff"/>
  </g>
</svg>
