<svg id="Iconly_Broken_Login" data-name="Iconly/Broken/Login" xmlns="http://www.w3.org/2000/svg" width="24" height="24" viewBox="0 0 24 24">
  <g id="Login" transform="translate(2.5 2)">
    <path id="Login-2" data-name="Login" d="M9.31,20A4.532,4.532,0,0,1,4.7,15.563v-.941a.8.8,0,0,1,1.6,0v.941a2.96,2.96,0,0,0,3.01,2.9h5.067A2.969,2.969,0,0,0,17.4,15.553a.8.8,0,0,1,1.6,0A4.543,4.543,0,0,1,14.377,20Zm-.039-6.547a.774.774,0,0,1,0-1.089l1.592-1.593H.766a.77.77,0,0,1,0-1.541H12.722a.766.766,0,0,1,.708.477.774.774,0,0,1-.167.84l-2.908,2.908a.765.765,0,0,1-1.084,0Zm8.127-1.4V4.437a2.959,2.959,0,0,0-3.01-2.9H9.32A2.969,2.969,0,0,0,6.3,4.447v.931a.8.8,0,0,1-1.6,0V4.447A4.543,4.543,0,0,1,9.32,0h5.067A4.533,4.533,0,0,1,19,4.437v7.614a.8.8,0,0,1-1.6,0ZM10.007,8.366l-.732-.726A.773.773,0,0,1,9.269,6.55a.763.763,0,0,1,1.084-.006l.734.728a.771.771,0,0,1,0,1.088.753.753,0,0,1-.544.229A.763.763,0,0,1,10.007,8.366Z" fill="#cbcbcb"/>
  </g>
</svg>
