<svg id="Iconly_Broken_Document" data-name="Iconly/Broken/Document" xmlns="http://www.w3.org/2000/svg" width="18" height="23.418" viewBox="0 0 18 23.418">
  <g id="Document" transform="translate(0 3.418)">
    <path id="Document-2" data-name="Document" d="M10.006,20a.886.886,0,0,1,0-1.705h2.848c2.455,0,3.692-1.479,3.692-4.395V2.682c0-2.915-1.237-4.394-3.692-4.394H5.138c-2.456,0-3.7,1.479-3.7,4.394V13.9c0,2.916,1.245,4.395,3.7,4.395a.887.887,0,0,1,0,1.705C1.924,20,0,17.715,0,13.9V2.682c0-3.825,1.924-6.1,5.138-6.1h7.716c3.213,0,5.137,2.285,5.146,6.1V13.9c0,3.815-1.916,6.1-5.138,6.1ZM8.388,16.5c-.2-.06-.351-.524-.351-1.075s.151-1.015.351-1.075h1.5c.2.06.352.524.352,1.075s-.151,1.014-.352,1.075Z" fill="#cbcbcb"/>
  </g>
</svg>
