<svg id="Iconly_Broken_Profile" data-name="Iconly/Broken/Profile" xmlns="http://www.w3.org/2000/svg" width="11" height="13" viewBox="0 0 11 13">
  <g id="Profile" transform="translate(0)">
    <path id="Profile-2" data-name="Profile" d="M4.8,12.991a.479.479,0,0,1-.481-.48.5.5,0,0,1,.51-.453q.332.009.674.009c2.99,0,4.506-.488,4.506-1.451S8.49,9.149,5.5,9.149.994,9.638.994,10.6c0,.315.119.772,1.151,1.1a.46.46,0,0,1,.311.591.5.5,0,0,1-.63.293C.317,12.106,0,11.242,0,10.6,0,8.463,3.139,8.216,5.5,8.216c1.36,0,5.5,0,5.5,2.4C11,12.753,7.861,13,5.5,13Q5.143,13,4.8,12.991Zm-3-9.51A3.6,3.6,0,0,1,5.5,0,3.6,3.6,0,0,1,9.2,3.48,3.6,3.6,0,0,1,5.5,6.959,3.6,3.6,0,0,1,1.8,3.48Zm.994,0A2.634,2.634,0,0,0,5.5,6.026,2.635,2.635,0,0,0,8.21,3.48,2.635,2.635,0,0,0,5.5.934,2.634,2.634,0,0,0,2.791,3.48Z" transform="translate(0)" fill="#f36621"/>
  </g>
</svg>
