<svg id="Iconly_Broken_Chat" data-name="Iconly/Broken/Chat" xmlns="http://www.w3.org/2000/svg" width="12" height="12" viewBox="0 0 12 12">
  <g id="Chat" transform="translate(0 0)">
    <path id="Chat-2" data-name="Chat" d="M4.708,11.859a.449.449,0,0,1,.195-.878A5.1,5.1,0,1,0,6,.9H6a5.1,5.1,0,0,0-4.522,7.46l.115.225a1.176,1.176,0,0,1,.081.889,10.2,10.2,0,0,0-.318.98c.337-.1.748-.251,1.046-.359l.122-.044a.449.449,0,0,1,.306.845l-.12.044a14.394,14.394,0,0,1-1.465.475.478.478,0,0,1-.106.011A.724.724,0,0,1,.6,11.219a.786.786,0,0,1-.2-.6.5.5,0,0,1,.011-.089A10.477,10.477,0,0,1,.823,9.181.285.285,0,0,0,.793,9L.677,8.771A6,6,0,0,1,6,0H6a6,6,0,1,1-1.3,11.859ZM7.926,6a.713.713,0,1,1,.713.713A.714.714,0,0,1,7.926,6ZM5.284,6A.713.713,0,1,1,6,6.713.714.714,0,0,1,5.284,6ZM2.642,6a.713.713,0,1,1,.713.713A.714.714,0,0,1,2.642,6Z" transform="translate(0)" fill="#f36621"/>
  </g>
</svg>
