<svg id="Iconly_Broken_Star" data-name="Iconly/Broken/Star" xmlns="http://www.w3.org/2000/svg" width="24" height="24" viewBox="0 0 24 24">
  <g id="Star" transform="translate(2 2)">
    <path id="Star-2" data-name="Star" d="M15.5,19.919a.67.67,0,0,1-.352-.09l-5.138-2.706L5.484,19.559a1.521,1.521,0,0,1-2.062-.613l-.015-.028a1.64,1.64,0,0,1-.158-1l.88-5.194L.451,9a1.6,1.6,0,0,1,0-2.227,1.494,1.494,0,0,1,.88-.451l5.043-.766L8.617.883a1.515,1.515,0,0,1,2.754,0l2.253,4.689,5.06.775a1.525,1.525,0,0,1,1.016.624,1.649,1.649,0,0,1-.162,2.081l-3.661,3.68.51,2.8a.782.782,0,0,1-.625.9.758.758,0,0,1-.88-.613l-.519-2.8a1.623,1.623,0,0,1,.44-1.408l3.67-3.706-5.06-.785a1.52,1.52,0,0,1-1.153-.9L10.008,1.551,7.728,6.294a1.518,1.518,0,0,1-1.153.9L1.532,7.96l3.643,3.7a1.591,1.591,0,0,1,.44,1.389l-.88,5.194,4.523-2.426a1.472,1.472,0,0,1,1.443,0l5.131,2.706a.788.788,0,0,1,.387.879.77.77,0,0,1-.739.6Z" transform="translate(0 0)" fill="#cbcbcb"/>
  </g>
</svg>
