<svg id="Iconly_Broken_Tick_Square" data-name="Iconly/Broken/Tick Square" xmlns="http://www.w3.org/2000/svg" width="24" height="24" viewBox="0 0 24 24">
  <g id="Tick_Square" data-name="Tick Square" transform="translate(2 2)">
    <path id="Tick_Square-2" data-name="Tick Square" d="M6.253,20C2.392,20,0,17.608,0,13.756v-7.5C0,2.392,2.392,0,6.253,0h7.5C17.59,0,20,2.392,20,6.253V8.822a.756.756,0,0,1-.756.756h-.009V9.56A.765.765,0,0,1,18.47,8.8V6.253c0-3.053-1.67-4.723-4.714-4.723h-7.5C3.21,1.53,1.53,3.21,1.53,6.253v7.5c0,3.034,1.68,4.714,4.723,4.714h7.5c3.043,0,4.714-1.68,4.714-4.714a.765.765,0,0,1,1.53,0C20,17.608,17.608,20,13.756,20Zm2.03-7.1L5.909,10.531A.75.75,0,1,1,6.97,9.47l1.843,1.844L13.029,7.1A.75.75,0,0,1,14.09,8.158L9.344,12.9a.751.751,0,0,1-1.061,0Z" fill="#cbcbcb"/>
  </g>
</svg>
