<svg xmlns="http://www.w3.org/2000/svg" width="18.947" height="18" viewBox="0 0 18.947 18">
  <g id="Swap" transform="translate(0 0)">
    <path id="Swap-2" data-name="Swap" d="M14.359,17.937a.834.834,0,0,1-.509-.77V3.546a.824.824,0,1,1,1.648,0v11.6l2.042-2.077a.82.82,0,0,1,1.166,0,.842.842,0,0,1,0,1.179l-3.451,3.506a.816.816,0,0,1-.9.183Zm-2.7-2.65-1.6-1.629a.841.841,0,0,1,0-1.179.817.817,0,0,1,1.165,0l1.6,1.631a.84.84,0,0,1,0,1.178.818.818,0,0,1-1.166,0Zm-7.628-.835V.833a.832.832,0,0,1,.509-.77.817.817,0,0,1,.9.182l4.033,4.1a.84.84,0,0,1,0,1.179.817.817,0,0,1-1.165,0L5.681,2.852v11.6a.824.824,0,1,1-1.648,0ZM.243,5.519a.839.839,0,0,1,0-1.178l1.6-1.63a.818.818,0,0,1,1.166,0,.842.842,0,0,1,0,1.18l-1.6,1.629a.815.815,0,0,1-1.165,0Z" transform="translate(0 0)" fill="#cbcbcb"/>
  </g>
</svg>
