<svg id="Iconly_Broken_Star" data-name="Iconly/Broken/Star" xmlns="http://www.w3.org/2000/svg" width="16" height="16" viewBox="0 0 16 16">
  <g id="Star" transform="translate(1.333 1.333)">
    <path id="Star-2" data-name="Star" d="M10.332,13.28a.447.447,0,0,1-.235-.06l-3.425-1.8L3.656,13.04a1.014,1.014,0,0,1-1.375-.409l-.01-.019a1.093,1.093,0,0,1-.105-.667l.587-3.463L.3,6a1.067,1.067,0,0,1,0-1.485,1,1,0,0,1,.587-.3L4.249,3.7,5.745.589a1.01,1.01,0,0,1,1.836,0l1.5,3.126,3.373.517a1.017,1.017,0,0,1,.677.416,1.1,1.1,0,0,1-.108,1.387L10.585,8.488l.34,1.866a.522.522,0,0,1-.417.6.505.505,0,0,1-.587-.409L9.575,8.68a1.082,1.082,0,0,1,.293-.939L12.315,5.27,8.942,4.747a1.013,1.013,0,0,1-.769-.6l-1.5-3.113L5.152,4.2a1.012,1.012,0,0,1-.769.6l-3.362.511L3.45,7.774a1.061,1.061,0,0,1,.293.926l-.587,3.463,3.015-1.617a.981.981,0,0,1,.962,0l3.421,1.8a.525.525,0,0,1,.258.586.513.513,0,0,1-.493.4Z" transform="translate(0 0)" fill="#f36621"/>
  </g>
</svg>
