<svg xmlns="http://www.w3.org/2000/svg" width="25" height="25" viewBox="0 0 25 25">
  <g id="Group_9975" data-name="Group 9975" transform="translate(-105 -565)">
    <rect id="Rectangle_18" data-name="Rectangle 18" width="25" height="25" rx="3" transform="translate(105 565)" fill="#269dd7"/>
    <path id="Icon_awesome-telegram" data-name="Icon awesome-telegram" d="M5,.563a5,5,0,1,0,5,5A5,5,0,0,0,5,.563ZM7.456,3.988,6.635,7.855c-.06.274-.224.341-.452.212l-1.25-.921-.6.581a.316.316,0,0,1-.252.123l.089-1.272L6.484,4.484c.1-.089-.022-.139-.155-.05l-2.863,1.8L2.232,5.851c-.268-.085-.274-.268.056-.4L7.109,3.595c.224-.081.419.054.347.393Z" transform="translate(112.667 571.771)" fill="#fff"/>
  </g>
</svg>
