<svg xmlns="http://www.w3.org/2000/svg" width="25" height="25" viewBox="0 0 25 25">
  <g id="Group_9977" data-name="Group 9977" transform="translate(-166 -565)">
    <rect id="Rectangle_22" data-name="Rectangle 22" width="25" height="25" rx="3" transform="translate(166 565)" fill="#2caae1"/>
    <path id="Icon_awesome-twitter" data-name="Icon awesome-twitter" d="M10.767,5.873c.008.109.008.219.008.328a7.048,7.048,0,0,1-7,7.18A6.822,6.822,0,0,1,0,12.248a4.96,4.96,0,0,0,.594.031A4.847,4.847,0,0,0,3.647,11.2a2.473,2.473,0,0,1-2.3-1.75,3.025,3.025,0,0,0,.464.039A2.539,2.539,0,0,0,2.459,9.4,2.508,2.508,0,0,1,.487,6.928V6.9a2.43,2.43,0,0,0,1.112.32A2.571,2.571,0,0,1,.838,3.842,6.934,6.934,0,0,0,5.909,6.482,2.92,2.92,0,0,1,5.848,5.9,2.491,2.491,0,0,1,8.307,3.381a2.425,2.425,0,0,1,1.8.8,4.768,4.768,0,0,0,1.561-.609,2.506,2.506,0,0,1-1.081,1.391A4.832,4.832,0,0,0,12,4.568a5.364,5.364,0,0,1-1.233,1.3Z" transform="translate(172.778 569.341)" fill="#fff"/>
  </g>
</svg>
