<svg id="Iconly_Broken_2_User" data-name="Iconly/Broken/2 User" xmlns="http://www.w3.org/2000/svg" width="24" height="24" viewBox="0 0 24 24">
  <g id="_2_User" data-name="2 User" transform="translate(2 2.5)">
    <path id="_2_User-2" data-name="2 User" d="M6.842,18.252a.749.749,0,0,1,.75-.747c2.779,0,6.09-.356,6.09-2.056,0-1.351-2.048-2.037-6.09-2.037-2.779,0-6.091.356-6.091,2.056,0,.381.112.872.984,1.3a5.764,5.764,0,0,0,1.328.43A.747.747,0,1,1,3.5,18.66a7.279,7.279,0,0,1-1.676-.548A2.855,2.855,0,0,1,0,15.469c0-3.551,5.713-3.551,7.592-3.551,3.259,0,7.591.366,7.591,3.532C15.182,19,9.468,19,7.592,19A.748.748,0,0,1,6.842,18.252Zm9.576-2.346A.746.746,0,0,1,17,15.024c.762-.156,1.28-.412,1.418-.7a.812.812,0,0,0,0-.7c-.141-.293-.656-.547-1.414-.7a10.216,10.216,0,0,0-1.523-.22.746.746,0,0,1-.7-.8.758.758,0,0,1,.8-.7,11.913,11.913,0,0,1,1.728.249,3.19,3.19,0,0,1,2.46,1.517,2.288,2.288,0,0,1,0,1.984A3.236,3.236,0,0,1,17.3,16.488a.791.791,0,0,1-.152.014A.747.747,0,0,1,16.418,15.906ZM4.432,9.161a.749.749,0,1,1,.922-1.18,3.626,3.626,0,1,0-1.4-2.863.75.75,0,0,1-1.5,0A5.112,5.112,0,1,1,4.432,9.161Zm8.837-.774a.749.749,0,0,1,.75-.747,2.539,2.539,0,1,0,0-5.078.748.748,0,1,1,0-1.5,4.034,4.034,0,1,1,0,8.069A.749.749,0,0,1,13.27,8.387Z" fill="#cbcbcb"/>
  </g>
</svg>
