<svg xmlns="http://www.w3.org/2000/svg" width="25" height="25" viewBox="0 0 25 25">
  <g id="Group_9974" data-name="Group 9974" transform="translate(-75 -565)">
    <path id="Path_306" data-name="Path 306" d="M3,0H22a3,3,0,0,1,3,3V22a3,3,0,0,1-3,3H3a3,3,0,0,1-3-3V3A3,3,0,0,1,3,0Z" transform="translate(75 565)" fill="#00d171"/>
    <path id="Icon_awesome-whatsapp" data-name="Icon awesome-whatsapp" d="M8.5,3.7A4.957,4.957,0,0,0,.7,9.683L0,12.25l2.627-.69a4.94,4.94,0,0,0,2.368.6H5a5,5,0,0,0,5-4.955A4.975,4.975,0,0,0,8.5,3.7ZM5,11.328a4.111,4.111,0,0,1-2.1-.574l-.15-.089-1.558.408.415-1.52-.1-.156a4.127,4.127,0,1,1,7.654-2.19A4.165,4.165,0,0,1,5,11.328ZM7.257,8.243c-.123-.062-.732-.362-.846-.4s-.2-.063-.279.062-.319.4-.393.487-.145.094-.268.031A3.37,3.37,0,0,1,3.786,6.949c-.127-.219.127-.2.364-.676a.229.229,0,0,0-.011-.217c-.031-.062-.279-.672-.382-.92s-.2-.208-.279-.212-.154,0-.237,0a.459.459,0,0,0-.33.154,1.391,1.391,0,0,0-.433,1.033,2.426,2.426,0,0,0,.5,1.281A5.533,5.533,0,0,0,5.1,9.259a2.423,2.423,0,0,0,1.487.31A1.268,1.268,0,0,0,7.42,8.98a1.036,1.036,0,0,0,.071-.589C7.462,8.335,7.379,8.3,7.257,8.243Z" transform="translate(82.111 570.083)" fill="#fff"/>
  </g>
</svg>
