<svg xmlns="http://www.w3.org/2000/svg" width="7.5" height="13.333" viewBox="0 0 7.5 13.333">
  <g id="Arrow_-_Right_2" data-name="Arrow - Right 2" transform="translate(7.5 13.333) rotate(180)">
    <path id="Arrow_-_Right_2-2" data-name="Arrow - Right 2" d="M.2.2a.679.679,0,0,0-.061.9l.063.07L6.31,7.152a.7.7,0,0,0,.986,0,.677.677,0,0,0,.061-.9l-.063-.07L1.189.2A.705.705,0,0,0,.2.2ZM4.331,8.129,4.26,8.19.205,12.161a.678.678,0,0,0,0,.97.706.706,0,0,0,.915.064l.071-.061L5.244,9.162a.677.677,0,0,0,0-.97.707.707,0,0,0-.915-.064Z" transform="translate(0)" fill="#c4c4c4"/>
  </g>
</svg>
