<svg id="Iconly_Light-outline_Arrow_-_Left_Circle" data-name="Iconly/Light-outline/Arrow - Left Circle" xmlns="http://www.w3.org/2000/svg" width="24" height="24" viewBox="0 0 24 24">
  <g id="Arrow_-_Left_Circle" data-name="Arrow - Left Circle" transform="translate(22 22) rotate(180)">
    <path id="Arrow_-_Left_Circle-2" data-name="Arrow - Left Circle" d="M0,10A9.94,9.94,0,0,1,3.9,2.073.727.727,0,0,1,4.79,3.226,8.546,8.546,0,1,0,10,1.454a8.645,8.645,0,0,0-1.3.1A.727.727,0,0,1,8.481.114,10,10,0,1,1,0,10Zm9.468,2.573L6,9.087A.75.75,0,1,1,7.06,8.028L10,10.981l2.94-2.953A.75.75,0,0,1,14,9.087L10.53,12.573a.747.747,0,0,1-1.062,0Z" transform="translate(0 20) rotate(-90)" fill="#fff"/>
  </g>
</svg>
