<svg id="Plus" xmlns="http://www.w3.org/2000/svg" width="15" height="15" viewBox="0 0 15 15">
  <path id="Plus-2" data-name="Plus" d="M4.69,15A4.347,4.347,0,0,1,0,10.317V4.69A4.348,4.348,0,0,1,4.69,0h5.627A4.353,4.353,0,0,1,15,4.69V6.616a.567.567,0,0,1-.574.567V7.17a.573.573,0,0,1-.574-.574V4.69a3.189,3.189,0,0,0-3.536-3.542H4.69A3.2,3.2,0,0,0,1.148,4.69v5.627A3.2,3.2,0,0,0,4.69,13.852h5.627a3.19,3.19,0,0,0,3.536-3.536.574.574,0,1,1,1.147,0A4.345,4.345,0,0,1,10.317,15Zm2.824-4.393a.58.58,0,0,1-.554-.594V9.287a.574.574,0,1,1,1.148.04v.726a.573.573,0,0,1-.573.555Zm2.553-2.691H4.994A.613.613,0,0,1,4.4,7.335a.567.567,0,0,1,.568-.574H6.946v-1.8a.587.587,0,0,1,.58-.574.568.568,0,0,1,.168.025.575.575,0,0,1,.426.555V6.761h1.952a.579.579,0,0,1,.594.581.574.574,0,0,1-.561.574Z" fill="#fff"/>
</svg>
